<?xml version="1.0" encoding="UTF-8"?>
<svg width="448px" height="448px" viewBox="0 0 448 448" version="1.1" xmlns="http://www.w3.org/2000/svg" xmlns:xlink="http://www.w3.org/1999/xlink">
    <!-- Generator: Sketch 55.2 (78181) - https://sketchapp.com -->
    <title>facebook</title>
    <desc>Created with Sketch.</desc>
    <defs>
        <path d="M480,56.7 L480,455.2 C480,468.9 468.9,479.9 455.3,479.9 L341.1,479.9 L341.1,306.5 L399.3,306.5 L408,238.9 L341,238.9 L341,195.7 C341,176.1 346.4,162.8 374.5,162.8 L410.3,162.8 L410.3,102.3 C404.1,101.5 382.9,99.6 358.1,99.6 C306.5,99.6 271.1,131.1 271.1,189 L271.1,238.9 L212.7,238.9 L212.7,306.5 L271.1,306.5 L271.1,480 L56.7,480 C43.1,480 32,468.9 32,455.3 L32,56.7 C32,43.1 43.1,32 56.7,32 L455.2,32 C468.9,32 480,43.1 480,56.7 Z" id="path-1"></path>
    </defs>
    <g id="Icons" stroke="none" stroke-width="1" fill="none" fill-rule="evenodd">
        <g id="Brands" transform="translate(-30765.000000, -14568.000000)">
            <g id="Row-12" transform="translate(20493.000000, 14536.000000)">
                <g id="Brands/facebook" transform="translate(10240.000000, 0.000000)">
                    <mask id="mask-2" fill="white">
                        <use xlink:href="#path-1"></use>
                    </mask>
                    <use id="Mask" fill="#000000" fill-rule="nonzero" xlink:href="#path-1"></use>
                    <g id="Color/White" mask="url(#mask-2)" fill="#FFFFFF" fill-rule="evenodd">
                        <rect id="White" x="0" y="0" width="512" height="512"></rect>
                    </g>
                </g>
            </g>
        </g>
    </g>
</svg>